<svg width="124" height="28" viewBox="0 0 124 28" fill="none" xmlns="http://www.w3.org/2000/svg">
<path d="M5.44092 0L5.81713 10.6611L8.55622 0.35101L6.55066 10.8285L11.5153 1.38644L7.22855 11.155L14.1698 3.05436L7.8168 11.6241L16.3866 5.27114L8.28591 12.2124L18.0545 7.92564L8.61238 12.8903L19.0899 10.8847L8.77978 13.6238L19.4409 14L8.77978 14.3762L19.0899 17.1153L8.61238 15.1097L18.0545 20.0744L8.28591 15.7876L16.3866 22.7289L7.8168 16.3759L14.1698 24.9456L7.22855 16.845L11.5153 26.6136L6.55066 17.1715L8.55622 27.649L5.81713 17.3389L5.44092 28L5.06471 17.3389L2.32562 27.649L4.33117 17.1715L-0.633446 26.6136L3.65329 16.845L-3.28794 24.9456L3.06504 16.3759L-5.50472 22.7289L2.59593 15.7876L-7.17264 20.0744L2.26946 15.1097L-8.20807 17.1153L2.10206 14.3762L-8.55908 14L2.10206 13.6238L-8.20807 10.8847L2.26946 12.8903L-7.17264 7.92564L2.59593 12.2124L-5.50472 5.27114L3.06504 11.6241L-3.28794 3.05436L3.65329 11.155L-0.633446 1.38644L4.33117 10.8285L2.32562 0.35101L5.06471 10.6611L5.44092 0Z" fill="#CBCBCB"/>
<path d="M29.2595 18.8807C28.4378 18.8807 27.6845 18.6607 26.9999 18.2207C26.3289 17.7674 25.7947 17.154 25.3975 16.3807C25.0003 15.594 24.8018 14.7007 24.8018 13.7007C24.8018 12.7007 24.9935 11.8073 25.377 11.0207C25.7605 10.234 26.2876 9.61401 26.9589 9.16068C27.6298 8.70735 28.3968 8.48067 29.2595 8.48067C30.0265 8.48067 30.6496 8.62067 31.1288 8.90069C31.622 9.16734 31.9987 9.54067 32.2588 10.0207C32.5189 10.5007 32.697 11.054 32.7931 11.6807C32.9024 12.3073 32.9571 12.9807 32.9571 13.7007C32.9571 14.2073 32.9024 14.7607 32.7931 15.3607C32.6833 15.9473 32.4916 16.514 32.2178 17.0607C31.9577 17.594 31.5879 18.034 31.1083 18.3807C30.6291 18.714 30.0129 18.8807 29.2595 18.8807ZM29.6704 17.3607C30.369 17.3607 30.9439 17.194 31.3961 16.8607C31.8616 16.5273 32.2041 16.0873 32.4232 15.5407C32.6423 14.9807 32.7517 14.3673 32.7517 13.7007C32.7517 12.9673 32.6355 12.3273 32.4027 11.7807C32.1836 11.2207 31.8411 10.7874 31.3756 10.4807C30.9234 10.1607 30.3553 10.0007 29.6704 10.0007C28.6433 10.0007 27.8489 10.354 27.2873 11.0607C26.7261 11.754 26.4451 12.634 26.4451 13.7007C26.4451 14.4073 26.5822 15.0407 26.856 15.6007C27.1438 16.1473 27.5273 16.5807 28.0065 16.9007C28.4993 17.2073 29.0541 17.3607 29.6704 17.3607ZM32.7517 4.68066H34.3954V18.6807H32.8956C32.8683 18.3873 32.8341 18.0407 32.7931 17.6407C32.7657 17.2407 32.7517 16.9207 32.7517 16.6807V4.68066Z" fill="#CBCBCB"/>
<path d="M41.8316 18.8807C40.9549 18.8807 40.1332 18.674 39.3662 18.2607C38.5996 17.8473 37.9761 17.254 37.4969 16.4807C37.0314 15.694 36.7986 14.7674 36.7986 13.7007C36.7986 12.634 37.0314 11.714 37.4969 10.9407C37.9761 10.154 38.5996 9.54736 39.3662 9.12068C40.1332 8.69401 40.9549 8.48067 41.8316 8.48067C42.708 8.48067 43.5228 8.69401 44.2762 9.12068C45.0432 9.54736 45.6594 10.154 46.125 10.9407C46.5905 11.714 46.8233 12.634 46.8233 13.7007C46.8233 14.7674 46.5905 15.694 46.125 16.4807C45.6594 17.254 45.0432 17.8473 44.2762 18.2607C43.5228 18.674 42.708 18.8807 41.8316 18.8807ZM41.8316 17.3807C42.4065 17.3807 42.9476 17.2407 43.4545 16.9607C43.961 16.6807 44.3719 16.2673 44.687 15.7207C45.0155 15.1607 45.1799 14.4873 45.1799 13.7007C45.1799 12.914 45.0155 12.2473 44.687 11.7007C44.3719 11.1407 43.961 10.714 43.4545 10.4207C42.9476 10.1273 42.4065 9.98069 41.8316 9.98069C41.2564 9.98069 40.7085 10.1273 40.1879 10.4207C39.6813 10.7007 39.2637 11.1207 38.9349 11.6807C38.6064 12.2273 38.442 12.9007 38.442 13.7007C38.442 14.4873 38.5996 15.1607 38.9143 15.7207C39.2432 16.2673 39.6677 16.6807 40.1879 16.9607C40.7085 17.2407 41.2564 17.3807 41.8316 17.3807Z" fill="#CBCBCB"/>
<path d="M48.9091 8.68066H50.5525V18.6807H48.9091V8.68066ZM53.8393 10.1807C53.141 10.1807 52.552 10.354 52.0725 10.7007C51.607 11.034 51.2371 11.4473 50.9634 11.9407C50.7029 12.4207 50.532 12.8873 50.4496 13.3407L50.4291 12.1807C50.4291 12.0607 50.4565 11.8607 50.5115 11.5807C50.5662 11.3007 50.6687 10.9873 50.8195 10.6407C50.9702 10.2807 51.1688 9.94069 51.4152 9.62067C51.6753 9.28733 52.0041 9.014 52.4013 8.80066C52.7985 8.58736 53.2777 8.48067 53.8393 8.48067V10.1807Z" fill="#CBCBCB"/>
<path d="M59.5724 18.8807C58.7643 18.8807 58.0179 18.6607 57.3332 18.2207C56.6623 17.7674 56.1212 17.154 55.7104 16.3807C55.3132 15.594 55.1146 14.7007 55.1146 13.7007C55.1146 12.7007 55.32 11.8073 55.7309 11.0207C56.1417 10.234 56.6965 9.61401 57.3948 9.16068C58.1071 8.70735 58.9014 8.48067 59.7778 8.48067C60.7365 8.48067 61.4622 8.72066 61.9554 9.20068C62.4619 9.66736 62.8044 10.294 62.9825 11.0807C63.1743 11.8673 63.27 12.7407 63.27 13.7007C63.27 14.2073 63.2153 14.7607 63.1059 15.3607C62.9962 15.9473 62.8044 16.514 62.5307 17.0607C62.2702 17.594 61.9007 18.034 61.4212 18.3807C60.942 18.714 60.3257 18.8807 59.5724 18.8807ZM59.9832 17.3607C60.6815 17.3607 61.2568 17.194 61.709 16.8607C62.1745 16.5273 62.517 16.0873 62.7361 15.5407C62.9552 14.9807 63.0645 14.3673 63.0645 13.7007C63.0645 12.9673 62.9483 12.3273 62.7156 11.7807C62.4961 11.2207 62.154 10.7874 61.6881 10.4807C61.2363 10.1607 60.6678 10.0007 59.9832 10.0007C58.9561 10.0007 58.1618 10.354 57.6002 11.0607C57.0386 11.754 56.758 12.634 56.758 13.7007C56.758 14.4073 56.895 15.0407 57.1688 15.6007C57.4563 16.1473 57.8398 16.5807 58.3193 16.9007C58.8122 17.2073 59.3669 17.3607 59.9832 17.3607ZM63.0645 8.68066H64.7079V18.6807H63.2084C63.2084 18.6807 63.1948 18.5607 63.1674 18.3207C63.1538 18.0807 63.1333 17.8007 63.1059 17.4807C63.0782 17.1607 63.0645 16.894 63.0645 16.6807V8.68066Z" fill="#CBCBCB"/>
<path d="M71.2681 18.8807C70.4464 18.8807 69.6931 18.6607 69.0085 18.2207C68.3375 17.7674 67.8033 17.154 67.4061 16.3807C67.0089 15.594 66.8103 14.7007 66.8103 13.7007C66.8103 12.7007 67.0021 11.8073 67.3856 11.0207C67.7691 10.234 68.2961 9.61401 68.9674 9.16068C69.6384 8.70735 70.4054 8.48067 71.2681 8.48067C72.0351 8.48067 72.6582 8.62067 73.1374 8.90069C73.6306 9.16734 74.0073 9.54067 74.2674 10.0207C74.5275 10.5007 74.7056 11.054 74.8016 11.6807C74.911 12.3073 74.966 12.9807 74.966 13.7007C74.966 14.2073 74.911 14.7607 74.8016 15.3607C74.6919 15.9473 74.5002 16.514 74.2264 17.0607C73.9663 17.594 73.5965 18.034 73.1169 18.3807C72.6377 18.714 72.0214 18.8807 71.2681 18.8807ZM71.6789 17.3607C72.3776 17.3607 72.9528 17.194 73.4047 16.8607C73.8702 16.5273 74.2127 16.0873 74.4318 15.5407C74.6509 14.9807 74.7603 14.3673 74.7603 13.7007C74.7603 12.9673 74.6441 12.3273 74.4113 11.7807C74.1922 11.2207 73.8497 10.7874 73.3842 10.4807C72.932 10.1607 72.3639 10.0007 71.6789 10.0007C70.6518 10.0007 69.8575 10.354 69.2959 11.0607C68.7347 11.754 68.4537 12.634 68.4537 13.7007C68.4537 14.4073 68.5908 15.0407 68.8646 15.6007C69.1524 16.1473 69.5359 16.5807 70.0151 16.9007C70.5079 17.2073 71.0627 17.3607 71.6789 17.3607ZM74.7603 4.68066H76.404V18.6807H74.9042C74.8768 18.3873 74.8427 18.0407 74.8016 17.6407C74.7743 17.2407 74.7603 16.9207 74.7603 16.6807V4.68066Z" fill="#CBCBCB"/>
<path d="M86.6546 15.4607H88.1951C88.0857 16.114 87.8393 16.7007 87.4558 17.2207C87.0859 17.7274 86.5927 18.134 85.9764 18.4407C85.3739 18.734 84.6756 18.8807 83.8812 18.8807C82.9225 18.8807 82.0598 18.6607 81.2928 18.2207C80.5257 17.7674 79.9163 17.154 79.4645 16.3807C79.0263 15.594 78.8072 14.7007 78.8072 13.7007C78.8072 12.7007 79.0194 11.8073 79.444 11.0207C79.8821 10.234 80.4779 9.61401 81.2312 9.16068C81.9842 8.70735 82.8336 8.48067 83.7783 8.48067C84.7781 8.48067 85.6206 8.70066 86.3053 9.14068C87.0036 9.56736 87.5173 10.2007 87.8461 11.0407C88.1882 11.8673 88.3253 12.8873 88.257 14.1007H80.4506C80.5189 14.754 80.7038 15.3273 81.0053 15.8207C81.3064 16.314 81.7036 16.7007 82.1968 16.9807C82.6897 17.2473 83.2513 17.3807 83.8812 17.3807C84.5795 17.3807 85.1684 17.2073 85.648 16.8607C86.1409 16.5007 86.4765 16.034 86.6546 15.4607ZM83.8402 9.98069C82.9908 9.98069 82.2789 10.2207 81.7036 10.7007C81.1283 11.1807 80.7448 11.834 80.5531 12.6607H86.5722C86.5175 11.7807 86.2229 11.114 85.689 10.6607C85.1684 10.2073 84.5522 9.98069 83.8402 9.98069Z" fill="#CBCBCB"/>
<path d="M89.8831 15.4607H91.403C91.444 16.034 91.6631 16.5007 92.0603 16.8607C92.4712 17.2207 93.0601 17.4007 93.8271 17.4007C94.2926 17.4007 94.6556 17.3407 94.9161 17.2207C95.1898 17.1007 95.3884 16.9407 95.5118 16.7407C95.6349 16.5273 95.6964 16.294 95.6964 16.0407C95.6964 15.734 95.6144 15.494 95.45 15.3207C95.2992 15.134 95.087 14.9807 94.8132 14.8607C94.5531 14.7407 94.2516 14.6273 93.9095 14.5207C93.5123 14.374 93.1015 14.2207 92.6766 14.0607C92.2657 13.8873 91.8754 13.6874 91.5059 13.4607C91.1498 13.2207 90.862 12.934 90.6429 12.6007C90.4238 12.254 90.3144 11.8407 90.3144 11.3607C90.3144 10.9607 90.3964 10.5874 90.5608 10.2407C90.7252 9.88066 90.958 9.57401 91.2591 9.32068C91.5743 9.054 91.9373 8.84735 92.3481 8.70066C92.7726 8.55401 93.2382 8.48067 93.7451 8.48067C94.4297 8.48067 95.0049 8.61401 95.4705 8.88069C95.95 9.14734 96.3127 9.52732 96.5594 10.0207C96.8195 10.5007 96.9566 11.0607 96.9703 11.7007H95.5528C95.4568 11.1007 95.2582 10.6674 94.9571 10.4007C94.6693 10.1207 94.2516 9.98069 93.704 9.98069C93.1425 9.98069 92.7111 10.1007 92.4096 10.3407C92.1085 10.5807 91.9578 10.9007 91.9578 11.3007C91.9578 11.594 92.0672 11.8407 92.2862 12.0407C92.5057 12.2273 92.7863 12.4007 93.1288 12.5607C93.4846 12.7074 93.8613 12.8607 94.2584 13.0207C94.6556 13.1807 95.0391 13.3407 95.4089 13.5007C95.7788 13.6607 96.1072 13.8473 96.395 14.0607C96.6825 14.274 96.9084 14.5407 97.0728 14.8607C97.2509 15.1673 97.3401 15.554 97.3401 16.0207C97.3401 16.5807 97.2031 17.0807 96.9293 17.5207C96.6688 17.9473 96.2785 18.2807 95.7583 18.5207C95.2514 18.7607 94.6283 18.8807 93.8886 18.8807C93.2177 18.8807 92.6424 18.8007 92.1632 18.6407C91.6977 18.4673 91.3073 18.2473 90.9922 17.9807C90.6774 17.7007 90.4306 17.4073 90.2525 17.1007C90.0885 16.794 89.9788 16.494 89.9241 16.2007C89.869 15.9073 89.8554 15.6607 89.8831 15.4607Z" fill="#CBCBCB"/>
<path d="M100.481 4.68066C101.031 4.68066 101.477 5.11497 101.477 5.65068C101.477 6.18639 101.031 6.62067 100.481 6.62067H100.337C99.7872 6.62067 99.3411 6.18639 99.3411 5.65068C99.3411 5.11497 99.7872 4.68066 100.337 4.68066H100.481ZM99.5875 8.68066H101.231V18.6807H99.5875V8.68066Z" fill="#CBCBCB"/>
<path d="M107.715 17.1007C106.989 17.1007 106.297 16.934 105.64 16.6007C104.996 16.254 104.469 15.7607 104.058 15.1207C103.661 14.4807 103.462 13.714 103.462 12.8207C103.462 11.9273 103.661 11.1607 104.058 10.5207C104.455 9.86735 104.976 9.36733 105.62 9.02069C106.263 8.66067 106.962 8.48067 107.715 8.48067C107.948 8.48067 108.167 8.50067 108.372 8.54067C108.592 8.56736 108.797 8.61401 108.989 8.68066H113.159V10.4007C112.57 10.4007 111.981 10.294 111.392 10.0807C110.817 9.86735 110.324 9.64736 109.913 9.42067L109.831 9.34068C110.31 9.59401 110.7 9.894 111.002 10.2407C111.317 10.5874 111.549 10.9807 111.7 11.4207C111.865 11.8473 111.947 12.314 111.947 12.8207C111.947 13.714 111.748 14.4807 111.351 15.1207C110.967 15.7607 110.454 16.254 109.81 16.6007C109.167 16.934 108.468 17.1007 107.715 17.1007ZM110.735 22.6807V22.2407C110.735 21.534 110.543 21.0207 110.159 20.7007C109.79 20.3807 109.228 20.2207 108.475 20.2207H106.421C105.969 20.2207 105.572 20.1807 105.229 20.1007C104.9 20.034 104.627 19.9273 104.408 19.7807C104.188 19.634 104.024 19.454 103.914 19.2407C103.805 19.0273 103.75 18.7873 103.75 18.5207C103.75 18.014 103.908 17.634 104.223 17.3807C104.538 17.114 104.928 16.9473 105.394 16.8807C105.859 16.814 106.304 16.814 106.729 16.8807L107.715 17.1007C106.976 17.1407 106.4 17.214 105.989 17.3207C105.592 17.4273 105.394 17.654 105.394 18.0007C105.394 18.2007 105.469 18.3673 105.62 18.5007C105.784 18.6207 106.024 18.6807 106.338 18.6807H108.475C109.187 18.6807 109.838 18.774 110.427 18.9607C111.016 19.1607 111.488 19.4873 111.844 19.9407C112.2 20.4073 112.378 21.0407 112.378 21.8407V22.6807H110.735ZM107.715 15.6007C108.167 15.6007 108.585 15.494 108.968 15.2807C109.365 15.0673 109.687 14.754 109.933 14.3407C110.18 13.9273 110.303 13.4207 110.303 12.8207C110.303 12.2207 110.18 11.714 109.933 11.3007C109.701 10.874 109.386 10.554 108.989 10.3407C108.592 10.114 108.167 10.0007 107.715 10.0007C107.263 10.0007 106.838 10.114 106.441 10.3407C106.044 10.554 105.722 10.8673 105.476 11.2807C105.229 11.694 105.106 12.2073 105.106 12.8207C105.106 13.4207 105.229 13.9273 105.476 14.3407C105.722 14.754 106.044 15.0673 106.441 15.2807C106.838 15.494 107.263 15.6007 107.715 15.6007Z" fill="#CBCBCB"/>
<path d="M115.092 8.68066H116.735V18.6807H115.092V8.68066ZM120.269 8.48067C120.816 8.48067 121.309 8.56067 121.748 8.72066C122.186 8.88069 122.556 9.11399 122.857 9.42067C123.158 9.72735 123.391 10.1007 123.555 10.5407C123.72 10.9673 123.802 11.454 123.802 12.0007V18.6807H122.158V12.4007C122.158 11.6274 121.973 11.0473 121.604 10.6607C121.234 10.274 120.679 10.0807 119.94 10.0807C119.378 10.0807 118.858 10.2207 118.378 10.5007C117.899 10.7807 117.502 11.1673 117.187 11.6607C116.886 12.1407 116.701 12.7007 116.632 13.3407L116.612 12.1807C116.68 11.6207 116.817 11.114 117.022 10.6607C117.242 10.2073 117.509 9.82066 117.824 9.50067C118.152 9.16734 118.522 8.914 118.933 8.74066C119.358 8.56736 119.803 8.48067 120.269 8.48067Z" fill="#CBCBCB"/>
</svg>
